<svg width="25" height="25" viewBox="0 0 25 25" fill="none" xmlns="http://www.w3.org/2000/svg">
<path d="M11.4583 18.75H13.5416V16.6667H11.4583V18.75ZM12.5 2.08333C6.74998 2.08333 2.08331 6.75 2.08331 12.5C2.08331 18.25 6.74998 22.9167 12.5 22.9167C18.25 22.9167 22.9166 18.25 22.9166 12.5C22.9166 6.75 18.25 2.08333 12.5 2.08333ZM12.5 20.8333C7.90623 20.8333 4.16665 17.0937 4.16665 12.5C4.16665 7.90625 7.90623 4.16666 12.5 4.16666C17.0937 4.16666 20.8333 7.90625 20.8333 12.5C20.8333 17.0937 17.0937 20.8333 12.5 20.8333ZM12.5 6.25C10.1979 6.25 8.33331 8.11458 8.33331 10.4167H10.4166C10.4166 9.27083 11.3541 8.33333 12.5 8.33333C13.6458 8.33333 14.5833 9.27083 14.5833 10.4167C14.5833 12.5 11.4583 12.2396 11.4583 15.625H13.5416C13.5416 13.2812 16.6666 13.0208 16.6666 10.4167C16.6666 8.11458 14.8021 6.25 12.5 6.25Z" fill="#B5B5B5"/>
</svg>
